<mxfile host="app.diagrams.net" modified="2020-07-17T08:39:49.153Z" agent="5.0 (Macintosh; Intel Mac OS X 10_15_3) AppleWebKit/537.36 (KHTML, like Gecko) Chrome/83.0.4103.116 Safari/537.36" etag="6uQB2pCUP8i_TmodS7UP" version="13.4.5" type="github">
  <diagram id="TKQxL3R4ejVe9jadOunU" name="Page-1">
    <mxGraphModel dx="946" dy="511" grid="1" gridSize="10" guides="1" tooltips="1" connect="1" arrows="1" fold="1" page="1" pageScale="1" pageWidth="827" pageHeight="1169" math="0" shadow="0">
      <root>
        <mxCell id="0" />
        <mxCell id="1" parent="0" />
        <mxCell id="FQK9Y4kTy5yyKR9RQYRd-3" value="" style="edgeStyle=orthogonalEdgeStyle;rounded=0;orthogonalLoop=1;jettySize=auto;html=1;entryX=0;entryY=0.5;entryDx=0;entryDy=0;" edge="1" parent="1" source="FQK9Y4kTy5yyKR9RQYRd-1" target="FQK9Y4kTy5yyKR9RQYRd-4">
          <mxGeometry relative="1" as="geometry">
            <mxPoint x="290" y="150" as="targetPoint" />
          </mxGeometry>
        </mxCell>
        <mxCell id="FQK9Y4kTy5yyKR9RQYRd-1" value="check daily/x.y.z分支" style="rounded=1;whiteSpace=wrap;html=1;" vertex="1" parent="1">
          <mxGeometry x="90" y="120" width="120" height="60" as="geometry" />
        </mxCell>
        <mxCell id="FQK9Y4kTy5yyKR9RQYRd-5" style="edgeStyle=orthogonalEdgeStyle;rounded=0;orthogonalLoop=1;jettySize=auto;html=1;exitX=1;exitY=0.5;exitDx=0;exitDy=0;entryX=0.5;entryY=1;entryDx=0;entryDy=0;dashed=1;" edge="1" parent="1" source="FQK9Y4kTy5yyKR9RQYRd-2" target="FQK9Y4kTy5yyKR9RQYRd-4">
          <mxGeometry relative="1" as="geometry" />
        </mxCell>
        <mxCell id="FQK9Y4kTy5yyKR9RQYRd-6" value="merge" style="edgeLabel;html=1;align=center;verticalAlign=middle;resizable=0;points=[];" vertex="1" connectable="0" parent="FQK9Y4kTy5yyKR9RQYRd-5">
          <mxGeometry x="-0.008" y="-1" relative="1" as="geometry">
            <mxPoint as="offset" />
          </mxGeometry>
        </mxCell>
        <mxCell id="FQK9Y4kTy5yyKR9RQYRd-2" value="check feture分支&lt;br&gt;【可选】" style="rounded=1;whiteSpace=wrap;html=1;dashed=1;" vertex="1" parent="1">
          <mxGeometry x="90" y="250" width="120" height="60" as="geometry" />
        </mxCell>
        <mxCell id="FQK9Y4kTy5yyKR9RQYRd-9" value="" style="edgeStyle=orthogonalEdgeStyle;rounded=0;orthogonalLoop=1;jettySize=auto;html=1;" edge="1" parent="1" source="FQK9Y4kTy5yyKR9RQYRd-4" target="2">
          <mxGeometry relative="1" as="geometry" />
        </mxCell>
        <mxCell id="FQK9Y4kTy5yyKR9RQYRd-4" value="开发/提交" style="rounded=0;whiteSpace=wrap;html=1;" vertex="1" parent="1">
          <mxGeometry x="300" y="120" width="120" height="60" as="geometry" />
        </mxCell>
        <mxCell id="2" value="自动化部署测试环境" style="ellipse;whiteSpace=wrap;html=1;rounded=0;" vertex="1" parent="1">
          <mxGeometry x="500" y="110" width="120" height="80" as="geometry" />
        </mxCell>
      </root>
    </mxGraphModel>
  </diagram>
</mxfile>
